<?xml version="1.0" encoding="UTF-8" standalone="no"?>
<svg
   version="1.1"
   width="0.62844336in"
   height="0.62161005in"
   viewBox="0 0 45.247973 44.755945"
   id="svg82"
   sodipodi:docname="Fortius Vetcare Cards.cdr"
   xmlns:inkscape="http://www.inkscape.org/namespaces/inkscape"
   xmlns:sodipodi="http://sodipodi.sourceforge.net/DTD/sodipodi-0.dtd"
   xmlns="http://www.w3.org/2000/svg"
   xmlns:svg="http://www.w3.org/2000/svg">
  <defs
     id="defs82" />
  <sodipodi:namedview
     id="namedview82"
     pagecolor="#ffffff"
     bordercolor="#000000"
     borderopacity="0.25"
     inkscape:showpageshadow="2"
     inkscape:pageopacity="0.0"
     inkscape:pagecheckerboard="0"
     inkscape:deskcolor="#d1d1d1"
     inkscape:document-units="in"
     showgrid="false"
     inkscape:export-bgcolor="#ffffff00">
    <inkscape:page
       x="0"
       y="-2.2530497e-12"
       width="45.247974"
       height="44.755943"
       id="page2"
       margin="0"
       bleed="0" />
  </sodipodi:namedview>
  <g
     id="g86"
     transform="translate(-1075.6695,-1642.3473)">
    <g
       id="g85">
      <g
         id="g84">
        <g
           id="g83">
          <g
             id="g82">
            <path
               d="m 1084.9323,1642.3472 h 26.723 c 5.0937,0 9.2621,4.1235 9.2621,9.1622 v 26.4316 c 0,5.0387 -4.1684,9.1622 -9.2621,9.1622 h -26.723 c -5.0953,0 -9.2629,-4.1235 -9.2629,-9.1622 v -26.4316 c 0,-5.0387 4.1676,-9.1622 9.2629,-9.1622 z"
               style="fill:#61c1ae;fill-rule:evenodd"
               id="path42" />
            <path
               d="m 1085.922,1649.5386 h 22.5476 c 1.5515,0 2.8203,1.2552 2.8203,2.7896 0,1.5344 -1.2688,2.7896 -2.8203,2.7896 h -19.7414 v 19.5272 c 0,1.5344 -1.2693,2.7896 -2.8204,2.7896 -1.5515,0 -2.8203,-1.2552 -2.8203,-2.7896 v -22.3168 l 10e-4,-0.072 v -0.072 -0.071 l 0.01,-0.07 0.01,-0.07 0.01,-0.069 0.012,-0.069 0.013,-0.068 0.015,-0.068 0.017,-0.067 0.018,-0.066 0.02,-0.066 0.021,-0.065 0.023,-0.064 0.025,-0.063 0.026,-0.063 0.028,-0.062 0.029,-0.062 0.03,-0.06 v 0 l 0.032,-0.059 0.033,-0.059 0.035,-0.058 0.036,-0.057 v -5e-4 l 0.037,-0.056 v 0 l 0.039,-0.055 v 0 l 0.04,-0.054 v 0 l 0.042,-0.053 0.042,-0.052 v 0 l 0.044,-0.051 v 0 l 0.045,-0.05 v 0 l 0.046,-0.049 v -5e-4 l 0.047,-0.048 v 0 l 0.048,-0.047 v 0 l 0.049,-0.045 v -5e-4 l 0.051,-0.044 v 0 l 0.052,-0.043 v 0 l 0.053,-0.042 v -5e-4 l 0.053,-0.04 5e-4,-5e-4 0.054,-0.039 v 0 l 0.056,-0.038 v 0 l 0.056,-0.037 h 5e-4 l 0.057,-0.036 0.058,-0.034 v 0 l 0.06,-0.033 0.06,-0.032 v 0 l 0.061,-0.03 h 5e-4 l 0.062,-0.029 v 0 l 0.062,-0.027 v -5e-4 l 0.063,-0.025 5e-4,-5e-4 0.064,-0.024 v 0 l 0.065,-0.023 v 0 l 0.066,-0.021 v 0 l 0.066,-0.02 v 0 l 0.067,-0.018 v 0 l 0.068,-0.016 5e-4,-5e-4 0.068,-0.015 v 0 l 0.069,-0.013 v 0 l 0.069,-0.012 v 0 l 0.07,-0.01 v -5e-4 l 0.071,-0.01 v -5e-4 l 0.071,-0.01 h 5e-4 0.072 v 0 h 0.072 v 0 h 0.072 v 0 z"
               style="fill:#092c5c;fill-rule:evenodd"
               id="path43" />
            <path
               d="m 1094.3684,1674.645 v -11.1584 l 10e-4,-0.072 v -0.072 -0.071 l 0.01,-0.071 0.01,-0.07 0.01,-0.069 0.012,-0.069 v -5e-4 l 0.013,-0.068 0.015,-0.068 0.017,-0.067 v -5e-4 l 0.018,-0.066 0.02,-0.066 v -5e-4 l 0.021,-0.065 v 0 l 0.023,-0.064 v -5e-4 l 0.025,-0.063 0.026,-0.062 v -5e-4 l 0.028,-0.062 v 0 l 0.029,-0.061 0.031,-0.061 0.032,-0.06 v 0 l 0.033,-0.059 v 0 l 0.035,-0.058 v 0 l 0.036,-0.057 0.037,-0.057 0.039,-0.055 0.04,-0.054 v -5e-4 l 0.041,-0.053 v -5e-4 l 0.042,-0.052 0.044,-0.051 v -5e-4 l 0.045,-0.05 v 0 l 0.046,-0.049 0.047,-0.048 0.049,-0.047 0.049,-0.045 0.05,-0.044 v -5e-4 l 0.052,-0.043 v -5e-4 l 0.053,-0.042 v 0 l 0.054,-0.041 v -5e-4 l 0.055,-0.039 v 0 l 0.055,-0.038 v 0 l 0.057,-0.037 v -5e-4 l 0.057,-0.035 v -5e-4 l 0.059,-0.034 v -5e-4 l 0.059,-0.033 v 0 l 0.061,-0.032 v 0 l 0.061,-0.03 v -5e-4 l 0.062,-0.029 v 0 l 0.063,-0.027 v 0 l 0.064,-0.026 v 0 l 0.064,-0.024 v -5e-4 l 0.065,-0.023 v 0 l 0.065,-0.021 v 0 l 0.067,-0.02 v 0 l 0.067,-0.018 v 0 l 0.068,-0.016 v -5e-4 l 0.069,-0.015 v 0 l 0.069,-0.013 v 0 l 0.07,-0.011 v -5e-4 l 0.07,-0.01 v 0 l 0.071,-0.01 v 0 l 0.071,-0.01 v -5e-4 h 0.072 v -5e-4 h 0.072 v 0 h 0.072 v 0 h 11.2809 c 1.5515,0 2.8203,1.2552 2.8203,2.7896 0,1.5344 -1.2688,2.7896 -2.8203,2.7896 h -8.4605 v 8.3688 c 0,1.5344 -1.2689,2.7896 -2.8204,2.7896 -1.5515,0 -2.8203,-1.2552 -2.8203,-2.7896 z"
               style="fill:#092c5c;fill-rule:evenodd"
               id="path44" />
            <g
               id="Layer1052">
              <path
                 d="m 1104.7843,1678.2309 c 0.012,0.033 0.012,0.1258 0.014,0.1675 0,0.056 0,0.1144 0.01,0.1675 -0.067,0.056 -0.081,0.1118 -0.081,0.1736 0,0.059 0.01,0.1204 0.011,0.1822 0,0.099 0.033,0.7596 0.049,0.8069 0.01,0.028 0.029,0.067 0.049,0.094 0.1507,0.1916 0.4371,0.061 0.4313,-0.1753 0,-0.1901 -0.031,-0.5139 -0.042,-0.7239 0,-0.063 0,-0.1202 -0.01,-0.1825 0,-0.035 0,-0.053 -0.01,-0.089 -0.014,-0.041 -0.034,-0.063 -0.074,-0.081 l -0.023,-0.3561 c 0.033,-0.019 0.01,0 0.034,-0.01 0.6672,-0.1196 1.1999,-0.7161 1.2498,-1.3876 l 0.01,-0.2 c -5e-4,-0.106 -0.038,-0.2879 -0.071,-0.3962 -0.1942,-0.6251 -0.7523,-1.0745 -1.408,-1.0982 l -0.067,-6e-4 c -0.053,10e-5 -0.079,0 -0.1333,0 -0.1143,0.013 -0.128,0.01 -0.2641,0.04 -0.5808,0.1459 -1.0432,0.6306 -1.1587,1.2191 -0.025,0.126 -0.017,0.1708 -0.027,0.2671 -0.011,0.1015 0.01,0.07 0,0.1329 -0.01,0.08 0.071,0.3913 0.098,0.4609 0.192,0.4982 0.6132,0.8523 1.1387,0.9595 l 0.2342,0.028 c 0.017,3e-4 0.021,0 0.036,0 z"
                 style="fill:#7d8240;fill-rule:evenodd"
                 id="path58" />
              <path
                 d="m 1103.8013,1675.8961 c -0.1387,0.178 -0.2153,0.3854 -0.248,0.5839 l -0.014,0.117 c -0.01,0.1055 -0.01,0.1225 0.01,0.2323 l 0.03,0.1647 c 0.025,0.097 0.049,0.1891 0.1057,0.2887 0.1809,0.3197 0.4714,0.5773 0.8377,0.6537 0.073,0.015 0.1543,0.035 0.2285,0.037 l 0.2875,-0.012 0.17,-0.035 c 0.075,-0.02 0.1527,-0.051 0.2287,-0.088 0.3978,-0.1958 0.6837,-0.637 0.7013,-1.0708 l -0.015,-0.2871 c -0.023,-0.1356 -0.064,-0.2743 -0.1294,-0.3986 -0.2146,-0.4073 -0.6094,-0.6675 -1.0614,-0.6938 h -0.1161 c -0.022,0 -0.035,0 -0.056,0 -0.03,0 -0.027,0 -0.061,0 -0.3658,0.064 -0.6456,0.1825 -0.8964,0.5046 z"
                 style="fill:#f2f1ec;fill-rule:evenodd"
                 id="path59" />
              <g
                 id="Layer1053">
                <path
                   d="m 1104.7989,1677.2866 h -0.1344 l -0.01,-0.02 c -0.043,5e-4 -0.2768,-0.01 -0.2959,-2e-4 -0.012,0.01 -0.022,0.063 -7e-4,0.079 0.012,0.01 0.39,0.016 0.4307,0.012 0,0.071 -0.017,0.1155 -0.088,0.1135 l -0.41,-0.011 c -0.078,0 -0.082,0.054 -0.083,0.1273 l 1.071,0.029 c 0,-0.1001 -3e-4,-0.1286 -0.1061,-0.1323 l -0.1561,-0.2771 c -0.03,-0.053 -0.078,-0.087 -0.1426,-0.062 -0.064,0.025 -0.071,0.064 -0.077,0.1441 z"
                   style="fill:#092c5c;fill-rule:evenodd"
                   id="path60" />
                <path
                   d="m 1104.9312,1675.9404 c -0.052,-0.016 -0.052,0.021 -0.071,0.059 -0.016,0.031 -0.03,0.064 -0.046,0.096 -0.032,0.064 -0.061,0.1303 -0.091,0.1931 -0.033,0.069 -0.1081,0.2181 -0.1365,0.2848 -0.028,0.066 -0.035,0.06 -4e-4,0.097 -0.01,0.01 -0.053,0.095 -0.054,0.1182 0.071,0.019 0.1339,0.084 0.1547,0.048 l 0.046,-0.098 c 0.025,0 0.038,0 0.05,-0.022 l 0.1205,-0.2542 c 0.032,-0.064 0,-0.028 -0.01,-0.1052 -0.01,-0.043 0.01,-0.084 0.029,-0.1136 0.07,-0.09 0.1111,-0.041 0.1311,-0.091 0.021,-0.052 0.061,-0.099 0.045,-0.1314 l -0.017,-0.021 c 0.01,-0.01 0.063,-0.1288 0.066,-0.1383 0.018,0 0.014,0.01 0.026,0 0.01,-0.01 0.011,-0.018 0.01,-0.029 -0.01,-0.023 -0.1566,-0.083 -0.1583,-0.083 -0.025,-0.01 -0.044,0.014 -0.037,0.035 0.01,0.017 0.019,0 -0.01,0.052 -0.013,0.025 -0.038,0.09 -0.053,0.1076 z"
                   style="fill:#092c5c;fill-rule:evenodd"
                   id="path61" />
                <path
                   d="m 1105.148,1676.4832 c 0.055,0.052 0.086,0.075 0.1257,0.1559 0.034,0.07 0.049,0.1591 0.037,0.2451 -0.017,0.1214 -0.098,0.2385 -0.2028,0.2988 -0.014,0.01 -0.034,0.016 -0.047,0.027 0,0.015 0.071,0.1263 0.075,0.1296 0.08,-0.03 0.1984,-0.1467 0.2447,-0.2263 0.045,-0.078 0.062,-0.1226 0.075,-0.2166 0.02,-0.1399 -0.014,-0.2724 -0.085,-0.3787 -0.01,-0.011 -0.011,-0.018 -0.018,-0.028 -0.01,-0.01 -0.01,-0.01 -0.01,-0.014 -0.01,-0.01 -0.01,-0.01 -0.012,-0.015 l -0.057,-0.06 c -0.01,-0.01 -0.01,-0.01 -0.013,-0.01 -0.012,-0.01 -0.015,-0.015 -0.027,-0.024 0,0.01 5e-4,0 0,0.01 -0.023,0.047 0,0.038 -0.051,0.087 -0.012,0.013 -0.015,0.012 -0.029,0.022 z"
                   style="fill:#092c5c;fill-rule:evenodd"
                   id="path62" />
                <path
                   d="m 1105.0433,1676.2067 c -0.088,0.015 -0.1432,0.113 -0.092,0.2021 0.067,0.1164 0.269,0.061 0.2443,-0.091 -0.013,-0.081 -0.092,-0.1216 -0.1523,-0.1114 z"
                   style="fill:#092c5c;fill-rule:evenodd"
                   id="path63" />
                <path
                   d="m 1104.2435,1676.9769 c 0.016,0.014 0.4989,0.2191 0.5093,0.2195 0.015,-0.016 0.033,-0.057 0.038,-0.08 -0.029,-0.01 -0.3743,-0.1613 -0.4374,-0.1878 -0.017,-0.01 -0.058,-0.03 -0.075,-0.024 -0.013,0 -0.034,0.053 -0.035,0.071 z"
                   style="fill:#092c5c;fill-rule:evenodd"
                   id="path64" />
                <path
                   d="m 1104.9036,1677.2076 c -0.045,0.015 -0.027,0.091 0.027,0.074 0.04,-0.012 0.03,-0.093 -0.027,-0.074 z"
                   style="fill:#092c5c;fill-rule:evenodd"
                   id="path65" />
              </g>
              <path
                 d="m 1110.7497,1679.0497 c -0.1901,-0.052 -0.3252,0.07 -0.7042,-0.1167 -0.424,-0.2085 -0.6663,-1.014 -0.046,-1.3872 0.2218,-0.133 0.3849,-0.1251 0.5508,0.02 0.1243,0.1089 -0.01,0.097 0.1505,0.067 -0.1342,-0.3586 -0.5712,-0.6984 -0.9102,-1.5382 -0.2576,-0.6379 -0.7521,-0.4653 -1.1812,-0.6466 -0.2047,-0.087 -0.4586,-0.2969 -0.4557,-0.5342 0.01,-0.4582 0.8093,-0.2693 1.0078,-1.1266 0.053,-0.228 0.1305,-0.5045 0,-0.7042 l -1.3972,0.3252 c -0.5404,0.2219 -0.8373,0.6792 -0.8635,1.1245 -0.03,0.5025 0.3836,0.6684 0.4102,1.4123 0.028,0.7505 -0.3969,1.7649 -0.2526,2.6438 0.1805,1.0958 1.3025,1.6244 2.2031,1.3718 0.4211,-0.118 1.1646,-0.5929 1.491,-0.9111 z"
                 style="fill:#7d8240;fill-rule:evenodd;stroke:#f2f1ec;stroke-width:0.216;stroke-linecap:butt;stroke-linejoin:miter;stroke-dasharray:none"
                 id="path66" />
              <path
                 d="m 1108.2393,1674.8786 c 0.256,0.7109 0.8068,0.4307 1.3196,0.7351 0.2077,0.123 0.2673,0.2843 0.3624,0.5087 0.2022,0.4782 0.424,0.7592 0.728,1.1716 0.1596,0.2168 0.1609,0.3315 0.071,0.5266 -0.036,0.078 -0.087,0.153 -0.1284,0.2422 -0.1505,0.3215 -0.1476,0.1852 -0.1768,0.1856 0.022,-0.2218 0.3161,-0.4541 -0.012,-0.663 -0.088,-0.037 -0.059,-0.053 -0.1922,-0.013 -0.4986,0.1497 -0.705,0.8522 -0.1451,1.2308 0.5216,0.3528 1.0336,0.017 1.6828,-0.3682 1.2288,-0.7288 2.091,-1.6732 1.3622,-2.9157 -0.389,-0.6633 -0.9185,-0.8251 -1.3939,-0.9631 l -0.7751,-0.1289 c -0.6025,-0.098 -0.1326,-0.5157 -1.2216,-1.1966 -0.096,-0.06 -0.2852,-0.1518 -0.379,-0.028 -0.089,0.1163 0.073,0.6746 -0.3348,1.1349 -0.2527,0.286 -0.5296,0.2539 -0.7668,0.5416 z"
                 style="fill:#092c5c;fill-rule:evenodd;stroke:#f2f1ec;stroke-width:0.216;stroke-linecap:butt;stroke-linejoin:miter;stroke-dasharray:none"
                 id="path67" />
              <path
                 d="m 1106.8042,1669.5429 c -0.7184,0.758 -0.5308,1.5736 0.052,2.3141 0.5858,0.7455 1.5785,0.9719 2.2723,0.2735 0.517,-0.5208 0.5154,-1.6419 -0.087,-2.3324 -0.5716,-0.655 -1.5373,-0.9944 -2.2373,-0.2552 z"
                 style="fill:#7d8240;fill-rule:evenodd;stroke:#f2f1ec;stroke-width:0.216;stroke-linecap:butt;stroke-linejoin:miter;stroke-dasharray:none"
                 id="path68" />
              <path
                 d="m 1103.7062,1671.5313 c -0.8739,0.8815 -0.059,2.7098 1.368,2.8182 0.3832,0.029 0.8815,-0.061 1.2209,-0.4453 1.2287,-1.3914 -1.1667,-3.8072 -2.5889,-2.3729 z"
                 style="fill:#092c5c;fill-rule:evenodd;stroke:#f2f1ec;stroke-width:0.216;stroke-linecap:butt;stroke-linejoin:miter;stroke-dasharray:none"
                 id="path69" />
              <path
                 d="m 1110.776,1670.308 c -1.057,0.9886 -0.4349,2.8019 0.7697,3.1013 0.3373,0.084 0.8714,0.023 1.2358,-0.3407 0.5295,-0.5287 0.6671,-1.5452 0.191,-2.304 -0.4924,-0.7839 -1.4802,-1.1266 -2.1965,-0.4566 z"
                 style="fill:#092c5c;fill-rule:evenodd;stroke:#f2f1ec;stroke-width:0.216;stroke-linecap:butt;stroke-linejoin:miter;stroke-dasharray:none"
                 id="path70" />
            </g>
          </g>
        </g>
      </g>
    </g>
  </g>
</svg>
